<?xml version="1.0" encoding="utf-8" standalone="no"?>
			<svg id="LayerSVG0" xmlns="http://www.w3.org/2000/svg"
			xmlns:xlink="http://www.w3.org/1999/xlink"
			xmlns:ev="http://www.w3.org/2001/xml-events"
  			version="1.1" baseProfile="full"
  			width="800" height="600"
			viewBox="0 0 800 600" >
			
			<defs>
					<symbol id="treppe" style="stroke:black">
      					<rect x ="0" y ="0" width ="20" height ="20" style="stroke:black;stroke-width:2;fill:white"/>
  						<polyline points="0,16.8 4,16.8 4,13.4 8,13.4 8,10 12,10 12,6.6 16,6.6 16,3.4 20,3.4" style="stroke:black;stroke-width:2;fill:none" />
    				</symbol>
    				
					<symbol id="lift" style="stroke:black">
    					<rect x ="0" y ="0" width ="20" height ="20" style="stroke:black;stroke-width:2;fill:white"/>
						<line x1= "6" y1 ="4" x2= "6" y2 ="16" style="stroke:black;stroke-width:3.5; marker-end:url(#Arrow);"/>
						<line x1= "14" y1 ="16" x2= "14" y2 ="4" style="stroke:black;stroke-width:3.5; marker-end:url(#Arrow);"/>
					</symbol>
					
					<symbol id="walk" style="stroke:black">
    					<rect x ="0" y ="0" width ="20" height ="20" style="stroke:black;stroke-width:2;fill:white"/>
						<circle cx="10" cy="5" r="3" style="stroke:black;stroke-width:2;fill:white" />
						<line x1="10" x2="10" y1="8" y2="14" style="stroke:black;stroke-width:2" />
						<line x1="10" x2="6" y1="14" y2="18" style="stroke:black;stroke-width:2" />
						<line x1="10" x2="14" y1="14" y2="18" style="stroke:black;stroke-width:2" />
						<line x1="6" x2="11" y1="14" y2="11" style="stroke:black;stroke-width:2" />
						<line x1="10" x2="14" y1="11" y2="9" style="stroke:black;stroke-width:2" />
					</symbol>	
					
					<marker id="pf1"
      					viewBox="0 0 10 10" refX="0" refY="5"
      					markerUnits="strokeWidth"
      					markerWidth="7" markerHeight="7" orient="auto">
      					<path d="M 0,0 l 10,5 l -10,5 z" />
    				</marker>
    				<marker id="ci1"
      					viewBox="0 0 10 10" refX="5" refY="5"
      					markerWidth="5" markerHeight="5"
      					orient="auto" >
      					<circle cx ="5" cy ="5" r ="5"
        				fill="black" stroke="black" stroke-width=".5" />
    				</marker>
                    <marker
                    orient="auto"
                     refY="0.0"
                     refX="0.0"
                     id="Arrow"
                     style="overflow:visible;">
                     	<path d="M 0.0,0.0 L 1.25,-1.25 L 0.0,0.0 L 1.25,1.25 L 0.0,0.0 z "
                      		style="fill-rule:evenodd;stroke:black;stroke-width:0.5;marker-start:none;fill:black;"
                      	transform="scale(1.0) rotate(180)" />
                      </marker>
			</defs>
			</svg>